<?xml version="1.0" encoding="utf-8"?>
<!-- Generator: Adobe Illustrator 24.0.1, SVG Export Plug-In . SVG Version: 6.00 Build 0)  -->
<svg version="1.1" id="Layer_1" xmlns="http://www.w3.org/2000/svg" xmlns:xlink="http://www.w3.org/1999/xlink" x="0px" y="0px"
	 viewBox="0 0 800 800" style="enable-background:new 0 0 800 800;" xml:space="preserve">
<style type="text/css">
	.st0{display:none;}
	.st1{display:inline;fill:#871FFF;}
	.st2{fill:url(#SVGID_1_);}
	.st3{fill:#F8A58D;}
	.st4{fill:#FFFFFF;}
	.st5{fill:url(#SVGID_2_);}
	.st6{fill:#80C7F5;}
	.st7{fill:url(#SVGID_3_);}
	.st8{fill:#D6219C;}
	.st9{fill:url(#SVGID_4_);}
	.st10{fill:url(#SVGID_5_);}
	.st11{fill:#C11F94;}
	.st12{fill:url(#SVGID_6_);}
</style>
<g id="Layer_1_1_" class="st0">
	<rect x="-7.2" y="-7.2" class="st1" width="814.5" height="814.5"/>
</g>
<g id="Layer_2_1_">
</g>
<linearGradient id="SVGID_1_" gradientUnits="userSpaceOnUse" x1="399.9562" y1="126.05" x2="399.9562" y2="537.75" gradientTransform="matrix(1 0 0 -1 0 799)">
	<stop  offset="8.011200e-04" style="stop-color:#871FFF"/>
	<stop  offset="1" style="stop-color:#F8A58D"/>
</linearGradient>
<path class="st2" d="M60.7,453.5l327.5-189.1c7.3-4.2,16.3-4.2,23.6,0l327.4,189c10.5,6.1,10.5,21.2,0,27.3L411.8,669.8
	c-7.3,4.2-16.3,4.2-23.6,0l-327.4-189C50.2,474.7,50.2,459.5,60.7,453.5z"/>
<path class="st3" d="M267.9,489.4l63.2,36.5l157.8-91.1c0,0-63-36.4-63-36.5L267.9,489.4z"/>
<path class="st4" d="M488.9,434.8l0.1,12.1c0,3.8-2,7.4-5.3,9.3l-142,81.8c-6.6,3.8-14.7,3.8-21.2,0l-47.3-27.3
	c-3.3-1.9-5.3-5.4-5.3-9.2v-12.1l63.2,36.5L488.9,434.8z"/>
<polygon class="st3" points="362.7,380.1 362.7,416.6 299.7,453 299.7,416.5 "/>
<polygon class="st4" points="299.7,453 283.9,443.9 283.9,425.6 299.7,416.5 "/>
<polygon class="st4" points="204.9,471.2 426,343.6 425.9,161.3 205,288.9 "/>
<linearGradient id="SVGID_2_" gradientUnits="userSpaceOnUse" x1="189.1" y1="486.0688" x2="425.9" y2="486.0688" gradientTransform="matrix(1 0 0 -1 0 799)">
	<stop  offset="0" style="stop-color:#CF3293"/>
	<stop  offset="0.9984" style="stop-color:#F8A58D"/>
</linearGradient>
<path class="st5" d="M204.9,471.2l-10.4-6c-3.3-1.9-5.3-5.4-5.3-9.2l-0.1-167c0-5.7,3-11,8-13.8l205.1-118.4c4.9-2.9,11-2.8,16,0
	l7.7,4.5L205,288.9L204.9,471.2z"/>
<path class="st6" d="M232.6,437l167-96.4c6.6-3.8,10.6-10.8,10.6-18.4l-0.1-119.8c0-6.1-6.6-10-12-6.9L231.3,292
	c-6.6,3.8-10.6,10.8-10.6,18.4v119.7C220.6,436.2,227.3,440.1,232.6,437z"/>
<g>
	<polygon class="st4" points="599.2,464.4 515,415.8 515,237.7 599.1,286.2 	"/>
	
		<linearGradient id="SVGID_3_" gradientUnits="userSpaceOnUse" x1="564.1" y1="334.6" x2="564.1" y2="568.2" gradientTransform="matrix(1 0 0 -1 0 799)">
		<stop  offset="0" style="stop-color:#CF3293"/>
		<stop  offset="0.9984" style="stop-color:#F8A58D"/>
	</linearGradient>
	<path class="st7" d="M599.2,464.4l9.6-5.5c2.7-1.6,4.4-4.5,4.4-7.7V283.1c0-3.2-1.7-6.1-4.4-7.7L533.7,232c-2.7-1.6-6.1-1.6-8.9,0
		l-9.8,5.7l84,48.6L599.2,464.4z"/>
	<polygon class="st8" points="515,237.7 599,286.2 599.2,464.4 515,415.8 	"/>
	<polygon class="st6" points="520.1,248.8 541.4,261.2 545.3,269.9 569.3,283.8 573.8,279.9 593.7,291.6 593.8,454.3 520,411.4 	"/>
</g>
<g>
	<polygon class="st4" points="541,301.6 541.1,350.4 563,363 570.4,381.4 578.7,372.1 649.6,411 649.5,362.3 	"/>
	
		<linearGradient id="SVGID_4_" gradientUnits="userSpaceOnUse" x1="541" y1="446.5125" x2="665.2999" y2="446.5125" gradientTransform="matrix(1 0 0 -1 0 799)">
		<stop  offset="0" style="stop-color:#CF3293"/>
		<stop  offset="0.9984" style="stop-color:#F8A58D"/>
	</linearGradient>
	<path class="st9" d="M541,301.6l10.6-6.1c3.3-1.9,7.3-1.9,10.6,0l95.1,53c4.9,2.8,7.9,8.1,7.9,13.7l0.1,33.5c0,3.8-2,7.3-5.3,9.2
		l-10.5,6l-0.1-48.8L541,301.6z M583,374.7l-4.3-2.5l-8.3,9.3L583,374.7z"/>
</g>
<g>
	<g>
		
			<linearGradient id="SVGID_5_" gradientUnits="userSpaceOnUse" x1="274.7648" y1="414.6452" x2="278.3362" y2="482.5023" gradientTransform="matrix(1 0 0 -1 0 799)">
			<stop  offset="0" style="stop-color:#CF3293"/>
			<stop  offset="0.9984" style="stop-color:#F8A58D"/>
		</linearGradient>
		<path class="st10" d="M243.7,335.2l52-29.9c1.5-0.9,5.1-3.4,6.5-2.8l1,0.7l13.3,8.6L306,326l-0.3,14c-0.2,8.9-6.1,19.6-13.2,23.7
			L267.6,378l-11.9,18.1L242,388c-0.2-0.2-0.4-0.3-0.7-0.5l0,0l0,0c-1.9-1.7-3-4.7-2.9-8.8l0.6-35.2
			C239.1,340.4,241.2,336.6,243.7,335.2z"/>
		<path class="st4" d="M263.6,395.4l40.8-21.8c7-3.7,12.8-14.1,13-23l0.7-35.2c0.1-3.2-1.9-4.7-4.4-3.4l-57.2,30.5
			c-2.5,1.3-4.5,5-4.6,8.1l-0.6,35.2C251.1,394.9,256.7,399.1,263.6,395.4z"/>
		<g>
			<path class="st8" d="M268.8,329.8v1.9c0.1,2.2-3.2,4.2-7.4,4.4c-4.2,0.2-7.7-1.4-7.8-3.6s-0.1-2.2-0.1-2.2"/>
			<path class="st8" d="M255.4,333.1c2.8,1.6,7.6,1.6,10.8,0c3.2-1.6,3.5-4.1,0.8-5.7c-2.8-1.6-7.6-1.6-10.8,0
				C253,328.9,252.6,331.5,255.4,333.1z"/>
			<path class="st8" d="M286.3,313.9c0,0,0,0,0.1,1.9c0.1,0.9,0.6,1.8,1.9,2.5c2.8,1.6,7.6,1.6,10.8,0c1.7-0.9,2.6-2,2.6-3.1
				l-0.2-2.4"/>
			<path class="st8" d="M299.9,312.6c-2.8-1.6-7.6-1.6-10.8,0"/>
			<path class="st8" d="M288.2,316.4c2.8,1.6,7.6,1.6,10.8,0s3.5-4.1,0.8-5.7c-2.8-1.6-7.6-1.6-10.8,0
				C285.8,312.3,285.5,314.9,288.2,316.4z"/>
			<g>
				<g>
					<path class="st11" d="M257.3,331.7c1.9,1.1,5.1,1,7.2,0c2.1-1.1,2.4-2.8,0.5-3.8c-1.9-1.1-5.1-1-7.2,0
						C255.7,328.9,255.4,330.6,257.3,331.7z"/>
					<path class="st8" d="M290.3,314.4c1.9,1.1,5.1,1,7.2,0c2.1-1.1,2.4-2.8,0.5-3.8s-5.1-1-7.2,0
						C288.6,311.6,288.4,313.4,290.3,314.4z"/>
					<g>
						<path class="st8" d="M255.6,314.2v5c0.4,2.1,10.6,1.6,10.2-0.8l0.3-5.7"/>
						<path class="st8" d="M266.1,312.7c-0.3-5.7,3.2-13.9,8.8-16.8l5.8-3c2-1,4-1.3,5.4-0.6c1.1,0.5,2,1.5,2.6,2.9
							c0.4,1,0.6,2.1,0.5,3.2l-0.3,13.7c0.4,2.4,10.6,2.4,10.2,0l-0.2-16.2c-0.8-5.3-3.9-9.5-8.4-11.5c-4.3-1.9-9.6-1.5-14.5,1
							l-5.8,3c-9.2,4.7-14.1,13.2-14.6,25.8"/>
					</g>
				</g>
			</g>
		</g>
		<path class="st11" d="M292.9,346c0-4.1-3.3-5.7-7.4-3.7c-4.1,2.1-7.5,7-7.5,11.1s3.3,5.7,7.4,3.7S292.9,350.1,292.9,346z"/>
		<path class="st11" d="M286.5,345.1l-0.5,0.2c-2,0.6-3.6,3.7-3.6,6.9v9.9c0,3.2,1.6,5.3,3.6,4.7l0.5-0.2c2-0.6,3.6-3.7,3.6-6.9
			v-9.9C290.1,346.6,288.5,344.5,286.5,345.1z"/>
		<path class="st8" d="M285.9,359.2v-6.5c1.7-2.2,2.8-4.8,2.8-7.2c0-1.7-0.6-3-1.6-3.8c3.4-1,5.8,0.7,5.8,4.3c0,2.3-1.1,4.9-2.8,7.2
			v6.5c0,3.2-1.6,6.3-3.6,6.9l-0.5,0.2c-1.1,0.3-2.1-0.1-2.7-1.2C284.8,364.4,285.9,361.8,285.9,359.2z"/>
	</g>
</g>
<g>
	<g>
		<polygon class="st4" points="463.1,225.8 463,278.5 340.7,348 340.8,295.3 		"/>
		
			<linearGradient id="SVGID_6_" gradientUnits="userSpaceOnUse" x1="324.9" y1="515.8125" x2="463" y2="515.8125" gradientTransform="matrix(1 0 0 -1 0 799)">
			<stop  offset="0" style="stop-color:#CF3293"/>
			<stop  offset="0.9984" style="stop-color:#F8A58D"/>
		</linearGradient>
		<path class="st12" d="M340.8,295.3l-0.1,52.7l-10.5-6c-3.3-1.9-5.3-5.4-5.3-9.2l0.1-37.4c0-5.7,3-10.9,7.9-13.7l108.9-61.9
			c3.3-1.9,7.3-1.9,10.6,0l10.6,6.1L340.8,295.3z"/>
	</g>
	<g>
		<g>
			<g>
				<polygon class="st8" points="375.7,300.4 378.5,298.9 376.6,297.8 378.6,294.7 380.6,295.8 380.6,292.7 383.4,291.3 
					383.4,294.3 385.4,291.2 387.3,292.3 385.3,295.4 388.1,294 388,297 385.2,298.5 387.2,299.6 385.2,302.8 383.2,301.6 
					383.1,304.7 380.3,306.1 380.4,303.1 378.4,306.3 376.4,305.1 378.5,302 375.7,303.4 				"/>
			</g>
		</g>
		<g>
			<g>
				<polygon class="st8" points="354.4,311.3 357.2,309.8 355.2,308.7 357.3,305.6 359.2,306.7 359.3,303.6 362.1,302.2 362,305.2 
					364,302 366,303.2 363.9,306.3 366.7,304.9 366.7,307.9 363.9,309.4 365.8,310.5 363.8,313.7 361.8,312.5 361.8,315.6 359,317 
					359.1,314 357,317.2 355.1,316 357.1,312.9 354.3,314.3 				"/>
			</g>
		</g>
		<g>
			<g>
				<polygon class="st8" points="437.1,265.9 439.9,264.4 438,263.3 440,260.2 441.9,261.3 442,258.2 444.8,256.8 444.7,259.8 
					446.8,256.7 448.7,257.8 446.7,261 449.5,259.5 449.4,262.5 446.6,264 448.5,265.1 446.5,268.3 444.6,267.1 444.5,270.2 
					441.7,271.6 441.8,268.6 439.7,271.8 437.8,270.6 439.8,267.5 437,268.9 				"/>
			</g>
		</g>
		<g>
			<g>
				<polygon class="st8" points="417.2,276.6 420,275.2 418,274 420,270.9 422,272 422,268.9 424.8,267.5 424.8,270.5 426.8,267.4 
					428.7,268.5 426.7,271.7 429.5,270.2 429.5,273.2 426.6,274.7 428.6,275.8 426.6,279 424.6,277.8 424.6,280.9 421.8,282.3 
					421.8,279.3 419.8,282.5 417.9,281.4 419.9,278.2 417.1,279.6 				"/>
			</g>
		</g>
		<g>
			<g>
				<polygon class="st8" points="397.3,288.5 400.1,287 398.2,285.9 400.2,282.8 402.1,283.9 402.2,280.8 405,279.4 404.9,282.4 
					407,279.3 408.9,280.4 406.9,283.6 409.7,282.1 409.6,285.1 406.8,286.6 408.8,287.7 406.7,290.9 404.8,289.7 404.7,292.8 
					401.9,294.2 402,291.2 400,294.4 398,293.3 400.1,290.1 397.3,291.5 				"/>
			</g>
		</g>
	</g>
</g>
<g>
	<g>
		<g>
			<polygon class="st8" points="619.4,373.2 616.6,371.7 618.6,374.8 616.6,376 614.7,372.7 614.7,375.7 611.9,374.3 611.9,371.2 
				609.9,372.3 608,369.1 610,368 607.2,366.5 607.2,363.5 610,364.9 608,361.8 610,360.7 611.9,363.9 612,360.9 614.7,362.3 
				614.6,365.4 616.7,364.4 618.6,367.5 616.7,368.6 619.4,370.2 			"/>
		</g>
	</g>
	<g>
		<g>
			<polygon class="st8" points="640.5,384.6 637.7,383.1 639.7,386.2 637.7,387.4 635.7,384.1 635.7,387.1 633,385.7 633,382.6 
				631,383.7 629.1,380.5 631,379.4 628.3,377.9 628.3,374.9 631.1,376.3 629.1,373.2 631.1,372 633,375.3 633,372.3 635.8,373.7 
				635.8,376.8 637.7,375.8 639.7,378.9 637.7,380 640.5,381.5 			"/>
		</g>
	</g>
	<g>
		<g>
			<polygon class="st8" points="558.9,337.2 556.1,335.8 558.1,338.9 556.1,340.1 554.1,336.8 554.1,339.8 551.4,338.3 551.3,335.2 
				549.4,336.4 547.5,333.2 549.4,332.1 546.6,330.5 546.6,327.5 549.4,329.1 547.5,325.9 549.4,324.8 551.4,327.9 551.4,324.9 
				554.1,326.4 554.2,329.5 556.1,328.5 558,331.6 556.1,332.7 558.9,334.2 			"/>
		</g>
	</g>
	<g>
		<g>
			<polygon class="st8" points="578.5,348.4 575.8,346.9 577.7,350.2 575.8,351.2 573.8,348 573.8,351 571,349.5 571.1,346.4 
				569.1,347.6 567.1,344.3 569.2,343.3 566.3,341.7 566.4,338.7 569.1,340.3 567.2,337 569.1,336 571,339.1 571.1,336.1 
				573.9,337.6 573.8,340.7 575.8,339.6 577.8,342.8 575.7,343.9 578.5,345.4 			"/>
		</g>
	</g>
	<g>
		<g>
			<polygon class="st8" points="598,360.7 595.3,359.3 597.3,362.5 595.3,363.6 593.4,360.3 593.4,363.3 590.6,361.9 590.6,358.8 
				588.7,359.9 586.6,356.7 588.7,355.6 585.9,354.1 585.9,351.1 588.6,352.6 586.7,349.4 588.6,348.3 590.7,351.5 590.6,348.5 
				593.4,349.9 593.4,353 595.4,352 597.3,355.1 595.4,356.2 598.1,357.7 			"/>
		</g>
	</g>
</g>
</svg>
